<svg width="517" height="911" viewBox="0 0 517 911" fill="none" xmlns="http://www.w3.org/2000/svg">
<path d="M399 8L399 308" stroke="white" stroke-width="16" stroke-miterlimit="10" stroke-linecap="square"/>
<path d="M406 895L1 903" stroke="white" stroke-width="16"/>
<path d="M508.047 402.444L486.429 413.338" stroke="white" stroke-width="12" stroke-miterlimit="10" stroke-linecap="square"/>
<path d="M484.817 440L505.042 453.16" stroke="white" stroke-width="12" stroke-miterlimit="10" stroke-linecap="square"/>
<path d="M297.953 484.408L319.571 473.441" stroke="white" stroke-width="12" stroke-miterlimit="10" stroke-linecap="square"/>
<path d="M321.183 447.233L300.885 434" stroke="white" stroke-width="12" stroke-miterlimit="10" stroke-linecap="square"/>
<path d="M398 587L398 887" stroke="white" stroke-width="16" stroke-miterlimit="10" stroke-linecap="square"/>
<path d="M416.889 460.792V493.399" stroke="white" stroke-width="12" stroke-miterlimit="10" stroke-linecap="round"/>
<path d="M380.761 460.792V493.399" stroke="white" stroke-width="12" stroke-miterlimit="10" stroke-linecap="round"/>
<path d="M418.352 334.495H379.074V315.924C379.074 311.611 382.591 308.102 386.915 308.102H410.511C414.835 308.102 418.352 311.611 418.352 315.924V334.495Z" fill="white"/>
<path opacity="0.2" d="M418.352 334.495H379.074V315.924C379.074 311.611 382.591 308.102 386.915 308.102H410.511C414.835 308.102 418.352 311.611 418.352 315.924V334.495Z" fill="black"/>
<path d="M442.828 406.654H354.599C352.767 406.654 351.228 405.192 351.228 403.291V398.539C351.228 396.711 352.767 395.176 354.599 395.176H442.828C444.66 395.176 446.199 396.638 446.199 398.539V403.291C446.199 405.119 444.733 406.654 442.828 406.654Z" fill="white"/>
<path opacity="0.25" d="M442.828 406.654H354.599C352.767 406.654 351.228 405.192 351.228 403.291V398.539C351.228 396.711 352.767 395.176 354.599 395.176H442.828C444.66 395.176 446.199 396.638 446.199 398.539V403.291C446.199 405.119 444.733 406.654 442.828 406.654Z" fill="black"/>
<path d="M438.504 395.176V390.57H358.922V395.176H438.504Z" fill="white"/>
<path opacity="0.3" d="M438.504 395.176V390.57H358.922V395.176H438.504Z" fill="black"/>
<path d="M438.504 390.57H358.922V342.317C358.922 338.003 362.44 334.494 366.763 334.494H430.663C434.987 334.494 438.504 338.003 438.504 342.317V390.57Z" fill="white"/>
<path opacity="0.15" d="M438.504 363.227C428.758 347.435 417.033 338.954 408.166 334.421H430.663C434.987 334.421 438.504 337.93 438.504 342.244V363.227Z" fill="black"/>
<path d="M442.828 504.586H354.599C352.767 504.586 351.228 503.05 351.228 501.223V496.397C351.228 494.57 352.767 493.034 354.599 493.034H442.828C444.66 493.034 446.199 494.57 446.199 496.397V501.223C446.199 503.05 444.733 504.586 442.828 504.586Z" fill="white"/>
<path d="M410.511 591.588H386.915C382.591 591.588 379.074 588.079 379.074 583.765V565.195H418.352V583.765C418.352 588.079 414.835 591.588 410.511 591.588Z" fill="white"/>
<path d="M430.663 565.267H366.763C362.44 565.267 358.922 561.758 358.922 557.445V509.191H438.504V557.445C438.504 561.758 434.987 565.267 430.663 565.267Z" fill="white"/>
<path opacity="0.2" d="M418.352 565.269H379.074V583.839C379.074 588.152 382.591 591.662 386.915 591.662H410.511C414.835 591.662 418.352 588.152 418.352 583.839V565.269Z" fill="black"/>
<path opacity="0.25" d="M442.969 504.513H354.74C352.908 504.513 351.37 503.05 351.37 501.15V496.397C351.37 494.57 352.908 493.034 354.74 493.034H442.969C444.801 493.034 446.34 494.496 446.34 496.397V501.15C446.34 503.05 444.875 504.513 442.969 504.513Z" fill="black"/>
<path d="M438.504 509.192V504.586H358.922V509.192H438.504Z" fill="white"/>
<path opacity="0.3" d="M438.504 509.192V504.586H358.922V509.192H438.504Z" fill="black"/>
<path opacity="0.05" d="M438.504 390.57H437.332C425.461 369.807 413.369 355.111 365.811 334.567C366.104 334.494 366.47 334.494 366.763 334.494H408.166C417.033 338.954 428.685 347.435 438.504 363.3V390.57Z" fill="black"/>
<path opacity="0.15" d="M358.922 536.463C368.669 552.255 380.393 560.736 389.26 565.269H366.763C362.44 565.269 358.922 561.759 358.922 557.446V536.463Z" fill="black"/>
<path opacity="0.05" d="M358.922 509.191H360.095C371.966 529.955 384.057 544.65 431.616 565.194C431.323 565.267 430.956 565.267 430.663 565.267H389.26C380.393 560.808 368.742 552.327 358.922 536.462V509.191Z" fill="black"/>
</svg>
