<svg width="68" height="68" viewBox="0 0 68 68" fill="none" xmlns="http://www.w3.org/2000/svg">
	<path d="M25.2615 61H28.0077V55.5H25.2917C24.4459 55.4835 17.0231 55.0242 17.0231 44.5C17.0231 39.0192 15.1969 35.5735 12.8983 33.5C15.1969 31.4265 17.0231 27.9808 17.0231 22.5C17.0231 11.9758 24.4459 11.5165 25.2615 11.5H28.0077V6H25.256C20.5079 6.011 11.5308 9.476 11.5308 22.5C11.5308 30.2 6.92271 30.7225 6 30.75L6.03845 36.25C6.26363 36.25 11.5308 36.3435 11.5308 44.5C11.5308 57.524 20.5079 60.989 25.2615 61ZM60.9616 30.75C60.7364 30.75 55.4692 30.6565 55.4692 22.5C55.4692 9.476 46.4921 6.011 41.7385 6H38.9923V11.5H41.7083C42.5541 11.5165 49.9769 11.9758 49.9769 22.5C49.9769 27.9808 51.8031 31.4265 54.1017 33.5C51.8031 35.5735 49.9769 39.0192 49.9769 44.5C49.9769 55.0242 42.5541 55.4835 41.7385 55.5H38.9923V61H41.744C46.4921 60.989 55.4692 57.524 55.4692 44.5C55.4692 36.8 60.0773 36.2775 61 36.25L60.9616 30.75Z" fill="white" />
</svg>
