<svg width="50" height="50" viewBox="0 0 50 50" fill="none" xmlns="http://www.w3.org/2000/svg">
	<circle cx="25" cy="25" r="24.5" stroke="white" />
	<path d="M25.226 15C21.2367 15 18 18.0806 18 21.8748C18 26.2405 22.8174 32.1589 24.5862 34.5485C24.6596 34.6494 24.7559 34.7315 24.8671 34.7881C24.9783 34.8447 25.1013 34.8742 25.226 34.8742C25.3508 34.8742 25.4738 34.8447 25.585 34.7881C25.6962 34.7315 25.7924 34.6494 25.8658 34.5485C27.6347 32.1599 32.4521 26.244 32.4521 21.8748C32.4521 18.0806 29.2154 15 25.226 15Z" stroke="white" stroke-linecap="round" stroke-linejoin="round" />
	<path d="M25.2261 24.6357C26.5563 24.6357 27.6347 23.5573 27.6347 22.227C27.6347 20.8968 26.5563 19.8184 25.2261 19.8184C23.8958 19.8184 22.8174 20.8968 22.8174 22.227C22.8174 23.5573 23.8958 24.6357 25.2261 24.6357Z" stroke="white" stroke-linecap="round" stroke-linejoin="round" />
</svg>
