<svg width="15" height="21" viewBox="0 0 15 21" fill="none" xmlns="http://www.w3.org/2000/svg">
<path d="M7.46149 1C3.89421 1 1 3.75466 1 7.14739C1 11.0512 5.30766 17.2376 6.88938 19.3744C6.95503 19.4646 7.04108 19.538 7.14051 19.5886C7.23994 19.6392 7.34992 19.6656 7.46149 19.6656C7.57305 19.6656 7.68304 19.6392 7.78246 19.5886C7.88189 19.538 7.96794 19.4646 8.0336 19.3744C9.61532 17.2385 13.923 11.0543 13.923 7.14739C13.923 3.75466 11.0288 1 7.46149 1Z" stroke="white" stroke-opacity="0.6" stroke-width="1.5" stroke-linecap="round" stroke-linejoin="round"/>
<path d="M7.46151 9.61527C8.65103 9.61527 9.61534 8.65097 9.61534 7.46145C9.61534 6.27192 8.65103 5.30762 7.46151 5.30762C6.27198 5.30762 5.30768 6.27192 5.30768 7.46145C5.30768 8.65097 6.27198 9.61527 7.46151 9.61527Z" stroke="white" stroke-opacity="0.6" stroke-width="1.5" stroke-linecap="round" stroke-linejoin="round"/>
</svg>
