<svg width="50" height="50" viewBox="0 0 50 50" fill="none" xmlns="http://www.w3.org/2000/svg">
	<circle cx="25" cy="25" r="24.5" stroke="white" />
	<path d="M35.3445 31.4554C34.5429 30.6478 32.6013 29.4691 31.6593 28.9941C30.4326 28.3762 30.3317 28.3258 29.3675 29.0421C28.7243 29.5201 28.2967 29.9471 27.5441 29.7866C26.7914 29.6261 25.1558 28.721 23.7236 27.2935C22.2914 25.8659 21.3338 24.183 21.1727 23.4329C21.0117 22.6828 21.4458 22.2603 21.9194 21.6156C22.5867 20.707 22.5362 20.5556 21.9658 19.329C21.521 18.3749 20.308 16.4517 19.4972 15.6541C18.6299 14.7975 18.6299 14.9489 18.0711 15.1811C17.6162 15.3725 17.1797 15.6052 16.7672 15.8762C15.9594 16.4128 15.5112 16.8585 15.1977 17.5284C14.8842 18.1982 14.7433 19.7686 16.3623 22.7095C17.9813 25.6504 19.1171 27.1542 21.468 29.4984C23.819 31.8426 25.6268 33.1031 28.2695 34.5851C31.5387 36.416 32.7927 36.0591 33.4646 35.7461C34.1365 35.4331 34.5843 34.9889 35.1219 34.1813C35.3936 33.7695 35.6268 33.3335 35.8186 32.8789C36.0513 32.3222 36.2027 32.3222 35.3445 31.4554Z" stroke="white" stroke-miterlimit="10" />
</svg>
