<svg width="27" height="37" viewBox="0 0 27 37" fill="none" xmlns="http://www.w3.org/2000/svg">
	<path d="M13.4389 2C7.12369 2 2 6.87664 2 12.8829C2 19.7939 9.62596 30.7459 12.4261 34.5287C12.5424 34.6884 12.6947 34.8183 12.8707 34.9079C13.0467 34.9975 13.2414 35.0442 13.4389 35.0442C13.6364 35.0442 13.8312 34.9975 14.0072 34.9079C14.1832 34.8183 14.3355 34.6884 14.4518 34.5287C17.2519 30.7475 24.8779 19.7995 24.8779 12.8829C24.8779 6.87664 19.7542 2 13.4389 2Z" stroke="#636363" stroke-width="3" stroke-linecap="round" stroke-linejoin="round" />
	<path d="M13.439 17.2519C15.5448 17.2519 17.2519 15.5448 17.2519 13.439C17.2519 11.3331 15.5448 9.62598 13.439 9.62598C11.3331 9.62598 9.62598 11.3331 9.62598 13.439C9.62598 15.5448 11.3331 17.2519 13.439 17.2519Z" stroke="#636363" stroke-width="3" stroke-linecap="round" stroke-linejoin="round" />
</svg>
