<svg width="58" height="58" viewBox="0 0 58 58" fill="none" xmlns="http://www.w3.org/2000/svg">
	<g clip-path="url(#clip0_813_261)">
		<path d="M51.8839 16.4923C53.9807 20.3274 55.0768 24.6292 55.071 29C55.0721 33.5624 53.8754 38.0452 51.6006 42C49.3257 45.9548 46.0524 49.243 42.108 51.5359L50.0714 28.5128C51.5591 24.795 52.055 21.8167 52.055 19.1777C52.0561 18.2798 51.9989 17.3828 51.8839 16.4923ZM32.596 16.7446C33.5906 16.6957 34.583 16.6106 35.5714 16.4894C36.9779 16.3067 36.8126 14.2419 35.409 14.3173C35.409 14.3173 31.1663 14.6421 28.449 14.6421C25.8767 14.6421 21.5615 14.2796 21.5615 14.2796C20.1492 14.21 19.9665 16.3473 21.3846 16.4198C21.3846 16.4198 22.6867 16.5706 24.1048 16.6373L28.1619 27.7675L22.4344 44.8746L12.9398 16.675C13.9357 16.6249 14.9299 16.5447 15.921 16.4343C17.3333 16.2516 17.168 14.1868 15.7615 14.268C15.7615 14.268 11.542 14.6015 8.816 14.6015C8.3317 14.6015 7.7575 14.5812 7.1485 14.5638C11.8697 7.6125 19.8998 2.9348 29 2.9348C35.7889 2.9348 41.9659 5.5274 46.6059 9.7788C46.4957 9.773 46.3855 9.7556 46.2666 9.7556C43.7059 9.7556 41.8876 11.9886 41.8876 14.384C41.8876 16.5329 43.1259 18.3541 44.4483 20.4972C45.443 22.2401 46.6001 24.4702 46.6001 27.6921C46.6001 29.9048 45.7446 32.5119 44.6136 36.0992L42.0152 44.7615L32.5902 16.704L32.596 16.7446ZM29 55.0594C26.5068 55.0618 24.0262 54.7063 21.634 54.0038L29.4553 31.2736L37.468 53.2324C37.5289 53.36 37.5898 53.4789 37.6565 53.592C34.8747 54.5676 31.9479 55.0656 29 55.0652M2.929 29C2.92477 25.3444 3.69366 21.7293 5.1852 18.3918L17.6175 52.4639C13.2137 50.3257 9.50071 46.9911 6.90314 42.8417C4.30557 38.6922 2.92835 33.8954 2.929 29ZM29 0C13.0123 0 0 13.0123 0 29C0 44.9877 13.0123 58 29 58C44.9877 58 58 44.9877 58 29C58 13.0123 44.9877 0 29 0Z" fill="white" />
	</g>
	<defs>
		<clipPath id="clip0_813_261">
			<rect width="58" height="58" fill="white" />
		</clipPath>
	</defs>
</svg>
