<svg width="59" height="51" viewBox="0 0 59 51" fill="none" xmlns="http://www.w3.org/2000/svg">
	<mask id="mask0_812_240" style="mask-type:luminance" maskUnits="userSpaceOnUse" x="0" y="0" width="54" height="37">
		<path d="M0 0.489258H53.8849V36.8933H0V0.489258Z" fill="white" />
	</mask>
	<g mask="url(#mask0_812_240)">
		<path fill-rule="evenodd" clip-rule="evenodd" d="M16.9446 36.8935H6.6652C3.00403 36.8935 0 34.0869 0 30.6658V6.71789C0 3.29633 3.00403 0.489258 6.6652 0.489258H47.2197C50.8808 0.489258 53.8849 3.29633 53.8849 6.71789V8.42846H49.4257V6.71789C49.4257 5.57752 48.44 4.65601 47.2197 4.65601H6.6652C5.44481 4.65601 4.45911 5.57752 4.45911 6.71789V30.7092C4.45911 31.8495 5.44481 32.7711 6.6652 32.7711H16.9446V36.8935Z" fill="white" />
	</g>
	<mask id="mask1_812_240" style="mask-type:luminance" maskUnits="userSpaceOnUse" x="27" y="13" width="32" height="30">
		<path d="M27.7598 13.3105H58.9057V42.8087H27.7598V13.3105Z" fill="white" />
	</mask>
	<g mask="url(#mask1_812_240)">
		<path fill-rule="evenodd" clip-rule="evenodd" d="M53.8642 42.8087H44.6871V38.5368H53.8642C54.1971 38.5368 54.4828 38.267 54.4828 37.9523V18.122C54.4828 17.8072 54.1971 17.5374 53.8642 17.5374H32.8947C32.5618 17.5374 32.277 17.8072 32.277 18.122V19.7408H27.7598V18.122C27.7598 15.4689 30.0417 13.3105 32.8476 13.3105H53.8167C56.6226 13.3105 58.905 15.4689 58.905 18.122V37.9523C58.9521 40.6058 56.6697 42.8087 53.8642 42.8087Z" fill="white" />
	</g>
	<mask id="mask2_812_240" style="mask-type:luminance" maskUnits="userSpaceOnUse" x="0" y="0" width="59" height="51">
		<path d="M0 50.702H59V0.489258H0V50.702Z" fill="white" />
	</mask>
	<g mask="url(#mask2_812_240)">
		<path fill-rule="evenodd" clip-rule="evenodd" d="M25.5446 46.4532H35.9211V27.3337H25.5446V46.4532ZM36.0553 50.702H25.4104C23.1741 50.702 21.3403 48.8488 21.3403 46.5888V27.1981C21.3403 24.9381 23.1741 23.085 25.4104 23.085H36.1C38.3363 23.085 40.1701 24.9381 40.1701 27.1981V46.5888C40.1701 48.8488 38.3363 50.702 36.0553 50.702Z" fill="white" />
	</g>
</svg>
